{"title":"The.Beyond.(Lucio.Fulci.uncut).1h27m.HiQ.672x288.SBC.ACArya.[DVD","uid":6997151,"size":734526864,"categoryP":"porn","categoryS":"movies","magnet":"?xt=urn:btih:559e29e36564a72fc6ffc79808d935bf1bc121d2&amp;dn=The.Beyond.%28Lucio.Fulci.uncut%29.1h27m.HiQ.672x288.SBC.ACArya.%5BDVD&amp;tr=udp%3A%2F%2Ftracker.openbittorrent.com%3A80&amp;tr=udp%3A%2F%2Fopen.demonii.com%3A1337&amp;tr=udp%3A%2F%2Ftracker.coppersurfer.tk%3A6969&amp;tr=udp%3A%2F%2Fexodus.desync.com%3A6969","seeders":0,"leechers":0,"uploader":"panzerfaust698","files":3,"time":1327882341,"description":"A young woman inherits an old hotel in Louisiana where after a series of supernatural 'accidents', she learns that the building was built over one of the entrances to Hell.\n\n\n\n\n\n\n\n &lt;a href=&quot;\nhttp://www.imdb.com/title/tt0082307/&quot; rel=&quot;nofollow&quot; target=&quot;_NEW&quot;&gt;\nhttp://www.imdb.com/title/tt0082307/&lt;/a&gt;\n\n\n\n\n\nFormat                                   : AVI\nFormat/Info                              : Audio Video Interleave\nFile size                                : 700 MiB\nDuration                                 : 1h 27mn\nOverall bit rate mode                    : Variable\nOverall bit rate                         : 1 119 Kbps\nWriting application                      : Nandub v1.0rc2\nWriting library                          : Nandub build 1852/release\n\nVideo\nID                                       : 0\nFormat                                   : MPEG-4 Visual\nCodec ID                                 : DIV3\nCodec ID/Hint                            : DivX 3 Low\nDuration                                 : 1h 27mn\nBit rate                                 : 973 Kbps\nWidth                                    : 672 pixels\nHeight                                   : 288 pixels\nDisplay aspect ratio                     : 2.35:1\nFrame rate                               : 23.976 fps\nColor space                              : YUV\nChroma subsampling                       : 4:2:0\nBit depth                                : 8 bits\nCompression mode                         : Lossy\nBits/(Pixel*Frame)                       : 0.210\nStream size                              : 609 MiB (87%)\n\nAudio\nID                                       : 1\nFormat                                   : MPEG Audio\nFormat version                           : Version 1\nFormat profile                           : Layer 3\nMode                                     : Joint stereo\nMode extension                           : MS Stereo\nCodec ID                                 : 55\nCodec ID/Hint                            : MP3\nDuration                                 : 1h 27mn\nBit rate mode                            : Variable\nBit rate                                 : 134 Kbps\nChannel(s)                               : 2 channels\nSampling rate                            : 48.0 KHz\nCompression mode                         : Lossy\nStream size                              : 83.8 MiB (12%)\nAlignment                                : Aligned on interleaves\nInterleave, duration                     : 24 ms (0.58 video frame)\nInterleave, preload duration             : 562 ms\n","torrent":{"xt":"urn:btih:559e29e36564a72fc6ffc79808d935bf1bc121d2","amp;dn":"The.Beyond.%28Lucio.Fulci.uncut%29.1h27m.HiQ.672x288.SBC.ACArya.%5BDVD","amp;tr":["udp%3A%2F%2Ftracker.openbittorrent.com%3A80","udp%3A%2F%2Fopen.demonii.com%3A1337","udp%3A%2F%2Ftracker.coppersurfer.tk%3A6969","udp%3A%2F%2Fexodus.desync.com%3A6969"],"infoHash":"559e29e36564a72fc6ffc79808d935bf1bc121d2","infoHashBuffer":{"type":"Buffer","data":[85,158,41,227,101,100,167,47,198,255,199,152,8,217,53,191,27,193,33,210]},"announce":[],"urlList":[]}}